<?xml version="1.0" encoding="UTF-8"?>
<svg id="Layer_1" data-name="Layer 1" xmlns="http://www.w3.org/2000/svg" viewBox="0 0 370.81 219.8" fill="#242D50">
  <defs>
    <style>
      .cls-1 {
        stroke-width: 0px;
      }
    </style>
  </defs>
  <path class="cls-1" d="M106.73,173.48c-13.13,0,13.67-53.18,13.67-53.18,13.53-31.88,17.15-61.8,7.36-76.98-14.67-22.78-53.93-3.89-87.68,42.17C6.33,131.55-9.12,187.37,5.54,210.15c12.93,20.06,44.94,7.79,75.45-26.91,0,0,10.04,9.59,30.27,9.59s39.29-12.4,68.33-37.68c-6.46-8.12-42.03,18.33-72.86,18.33ZM75.63,124.24c-20.92,28.56-41.24,46.48-45.39,40.03-4.15-6.43,9.45-34.79,30.36-63.35,20.92-28.54,41.24-46.46,45.39-40.03,4.15,6.45-9.45,34.81-30.36,63.35Z"/>
  <path class="cls-1" d="M191.22,154.7c29.04,25.27,48.71,37.68,68.33,37.68,20.23,0,30.27-9.59,30.27-9.59,30.51,34.7,62.52,46.97,75.45,26.91,14.66-22.78-.8-78.6-34.55-124.66-33.75-46.06-73.01-64.95-87.68-42.17-9.78,15.18-6.16,45.1,7.36,76.98,0,0,26.81,53.18,13.67,53.18-30.82,0-66.4-26.45-72.86-18.33ZM264.82,60.43c4.15-6.43,24.47,11.49,45.39,40.03,20.92,28.56,34.51,56.92,30.36,63.35-4.15,6.45-24.47-11.47-45.39-40.03-20.92-28.54-34.51-56.9-30.36-63.35Z"/>
  <path class="cls-1" d="M317.52,2.86c6.77-6.77,25.26,0,35.33,4.46,4.44,1.96,7.98,5.51,9.95,9.95,4.45,10.06,11.23,28.56,4.46,35.33-9.5,9.5-28.33,6.06-42.07-7.67-13.73-13.73-17.17-32.57-7.67-42.07Z"/>
  <path class="cls-1" d="M53.4,3.16c-6.77-6.77-25.26,0-35.33,4.46-4.44,1.96-7.98,5.51-9.95,9.95C3.67,27.63-3.1,46.12,3.67,52.89c9.5,9.5,28.33,6.06,42.07-7.67,13.73-13.73,17.17-32.57,7.67-42.07Z"/>
  <path class="cls-1" d="M213.11,124.18c-4.06,7.69-18.27,14.63-25.51,24.04-.63.81-1.56,1.24-2.5,1.24h-.13c-.93,0-1.87-.43-2.5-1.24-7.22-9.41-21.45-16.35-25.51-24.04-5.55-10.47-2.52-19.7,2.93-23.19,1.51-.98,3.2-1.51,4.97-1.49,5.22.05,11.43,2.57,18.19,6.64.61.35,1.31.5,1.99.43.68.08,1.36-.08,1.97-.43,6.76-4.06,12.99-6.58,18.22-6.64,1.74-.03,3.43.5,4.95,1.46,5.45,3.48,8.5,12.74,2.93,23.21Z"/>
</svg>